<?xml version="1.0" encoding="UTF-8"?>
<svg width="1600px" height="682px" viewBox="0 0 1600 682" version="1.1" xmlns="http://www.w3.org/2000/svg" xmlns:xlink="http://www.w3.org/1999/xlink">
    <title>slide-1-food</title>
    <g id="slide-1-food" stroke="none" stroke-width="1" fill="none" fill-rule="evenodd">
        <g id="Group" transform="translate(853.000000, 231.000000)" fill="#4C82A9" stroke="#1E1E24" stroke-width="3">
            <g id="idea-share">
                <rect id="Rectangle" x="1.5" y="1.5" width="57" height="57" rx="12"></rect>
            </g>
        </g>
        <g id="time-reference-frame" transform="translate(853.000000, 431.000000)" fill="#383843">
            <path id="Line-2" d="M102,4 L116,11 L102,18 L102,12 L44.6969697,12 L44.6969697,10 L102,10 L102,4 Z" fill-rule="nonzero"></path>
            <text id="TIME" font-family="Nunito-Regular, Nunito" font-size="16" font-weight="normal" letter-spacing="0.45714286">
                <tspan x="0" y="16.255814">TIME</tspan>
            </text>
        </g>
        <rect id="Rectangle" stroke="#4C82A9" stroke-width="2" fill="#FAFCFF" x="86" y="42" width="600" height="600" rx="6"></rect>
        <g id="restaurant" transform="translate(130.000000, 177.000000)" fill-rule="nonzero">
            <path d="M508,329.969 L4.04,329.969 C1.831,329.969 0.04,328.178 0.04,325.969 L0.04,285.03 C0.04,282.821 1.831,281.03 4.04,281.03 L508,281.03 C510.209,281.03 512,282.821 512,285.03 L512,325.968 C512,328.178 510.209,329.969 508,329.969 L508,329.969 Z" id="Path" fill="#707DD3"></path>
            <path d="M507.93,281.03 L486.304,281.03 L486.304,300.202 C486.304,302.45 484.482,304.272 482.234,304.272 L0.04,304.272 L0.04,325.898 C0.04,328.146 1.862,329.968 4.11,329.968 L507.93,329.968 C510.178,329.968 512,328.146 512,325.898 L512,285.1 C512,282.853 510.178,281.03 507.93,281.03 Z" id="Path" fill="#5766CB"></path>
            <polygon id="Path" fill="#BED8FB" points="76.823 175.155 92.086 175.155 92.086 281.03 76.823 281.03"></polygon>
            <g id="Group" transform="translate(0.000000, 258.000000)">
                <path d="M161.909,31.463 L7,31.463 C3.134,31.463 0,28.329 0,24.463 L0,7.936 C0,4.07 3.134,0.936 7,0.936 L161.909,0.936 C165.775,0.936 168.909,4.07 168.909,7.936 L168.909,24.463 C168.909,28.329 165.775,31.463 161.909,31.463 Z" id="Path" fill="#E4F6FF"></path>
                <path d="M161.909,0.936 L149.942,0.936 L149.942,5.496 C149.942,9.362 146.808,12.496 142.942,12.496 L-2.84217094e-14,12.496 L-2.84217094e-14,24.463 C-2.84217094e-14,28.329 3.134,31.463 7,31.463 L161.909,31.463 C165.775,31.463 168.909,28.329 168.909,24.463 L168.909,7.936 C168.909,4.07 165.775,0.936 161.909,0.936 L161.909,0.936 Z" id="Path" fill="#BED8FB"></path>
            </g>
            <g id="Group">
                <path d="M133.495,140.889 L92.086,179.508 L76.823,179.508 L35.414,140.888 C12.851,119.846 0.04,90.379 0.04,59.527 L0.04,7.177 C0.04,3.23 3.24,0.031 7.186,0.031 L161.722,0.031 C165.669,0.031 168.868,3.231 168.868,7.177 L168.868,59.527 C168.868,90.379 156.057,119.846 133.495,140.889 L133.495,140.889 Z" id="Path" fill="#E4F6FF"></path>
                <path d="M119.876,0.031 L119.876,36.73 C119.876,67.582 107.065,97.049 84.502,118.091 L47.736,152.381 L82.372,184.684 C83.545,185.778 85.364,185.778 86.536,184.684 L133.495,140.889 C156.057,119.847 168.869,90.38 168.869,59.528 L168.869,7.178 C168.869,3.231 165.669,0.031 161.723,0.031 L119.876,0.031 L119.876,0.031 Z" id="Path" fill="#BED8FB"></path>
            </g>
        </g>
        <line x1="769.5" y1="142" x2="769.5" y2="542" id="Line" stroke="#A7A8AA" stroke-linecap="square"></line>
    </g>
</svg>