<?xml version="1.0" encoding="UTF-8"?>
<svg width="1600px" height="900px" viewBox="0 0 1600 900" version="1.1" xmlns="http://www.w3.org/2000/svg" xmlns:xlink="http://www.w3.org/1999/xlink">
    <title>slide-2-study</title>
    <defs>
        <filter x="-1.6%" y="-1.6%" width="103.1%" height="103.3%" filterUnits="objectBoundingBox" id="filter-1">
            <feOffset dx="1" dy="1" in="SourceAlpha" result="shadowOffsetOuter1"></feOffset>
            <feGaussianBlur stdDeviation="1.5" in="shadowOffsetOuter1" result="shadowBlurOuter1"></feGaussianBlur>
            <feColorMatrix values="0 0 0 0 0.117647059   0 0 0 0 0.117647059   0 0 0 0 0.141176471  0 0 0 0.3 0" type="matrix" in="shadowBlurOuter1" result="shadowMatrixOuter1"></feColorMatrix>
            <feMerge>
                <feMergeNode in="shadowMatrixOuter1"></feMergeNode>
                <feMergeNode in="SourceGraphic"></feMergeNode>
            </feMerge>
        </filter>
        <rect id="path-2" x="306" y="352" width="220" height="230" rx="3"></rect>
        <filter x="-3.2%" y="-3.0%" width="107.3%" height="107.0%" filterUnits="objectBoundingBox" id="filter-4">
            <feMorphology radius="1" operator="dilate" in="SourceAlpha" result="shadowSpreadOuter1"></feMorphology>
            <feOffset dx="1" dy="1" in="shadowSpreadOuter1" result="shadowOffsetOuter1"></feOffset>
            <feGaussianBlur stdDeviation="1.5" in="shadowOffsetOuter1" result="shadowBlurOuter1"></feGaussianBlur>
            <feColorMatrix values="0 0 0 0 0.117647059   0 0 0 0 0.117647059   0 0 0 0 0.141176471  0 0 0 0.5 0" type="matrix" in="shadowBlurOuter1"></feColorMatrix>
        </filter>
    </defs>
    <g id="slide-2-study" stroke="none" stroke-width="1" fill="none" fill-rule="evenodd">
        <g id="Group" transform="translate(883.000000, 441.000000)" fill="#4C82A9" stroke="#1E1E24" stroke-width="3">
            <g id="idea-share">
                <rect id="Rectangle" x="1.5" y="1.5" width="57" height="57" rx="12"></rect>
            </g>
        </g>
        <g id="Group" transform="translate(1003.000000, 441.000000)" fill="#4C82A9" stroke="#1E1E24" stroke-width="3">
            <g id="idea-share">
                <rect id="Rectangle" x="1.5" y="1.5" width="57" height="57" rx="12"></rect>
            </g>
        </g>
        <g id="Group" transform="translate(943.000000, 471.000000)" stroke="#1E1E24" stroke-linecap="square" stroke-width="3">
            <g id="horizontal-track">
                <line x1="0" y1="0.5" x2="60" y2="0.5" id="Line"></line>
            </g>
        </g>
        <g id="time-reference-frame" transform="translate(883.000000, 641.000000)" fill="#383843">
            <path id="Line-2" d="M102,4 L116,11 L102,18 L102,12 L44.6969697,12 L44.6969697,10 L102,10 L102,4 Z" fill-rule="nonzero"></path>
            <text id="TIME" font-family="Nunito-Regular, Nunito" font-size="16" font-weight="normal" letter-spacing="0.45714286">
                <tspan x="0" y="16.255814">TIME</tspan>
            </text>
        </g>
        <rect id="Rectangle" stroke="#4C82A9" stroke-width="2" fill="#FAFCFF" x="116" y="252" width="600" height="600" rx="6"></rect>
        <line x1="799.5" y1="352" x2="799.5" y2="752" id="Line" stroke="#A7A8AA" stroke-linecap="square"></line>
        <g id="computer" filter="url(#filter-1)" transform="translate(160.000000, 309.881000)" fill-rule="nonzero">
            <path d="M306.412,393.843 L288.101,373.239 L217.342,373.239 L205.587,393.843 C212.108,426.281 193.618,460.497 170.638,476.512 L341.36,476.512 C318.381,460.497 299.891,426.281 306.412,393.843 L306.412,393.843 Z" id="Path" fill="#365E7D"></path>
            <path d="M205.588,393.843 C206.763,399.69 207.115,405.593 206.786,411.438 L305.216,411.438 C304.887,405.593 305.238,399.69 306.414,393.843 L289.687,373.239 L217.344,373.239 L205.588,393.843 Z" id="Path" fill="#2B4D66"></path>
            <path d="M382.49,484.238 L129.51,484.238 C125.243,484.238 121.784,480.779 121.784,476.512 C121.784,472.245 125.243,468.786 129.51,468.786 L382.49,468.786 C386.758,468.786 390.216,472.245 390.216,476.512 C390.216,480.779 386.757,484.238 382.49,484.238 Z" id="Path" fill="#2B4D66"></path>
            <path d="M256,451.498 C251.733,451.498 248.274,448.039 248.274,443.772 L248.274,426.973 C248.274,422.705 251.733,419.247 256,419.247 C260.267,419.247 263.727,422.706 263.727,426.973 L263.727,443.772 C263.727,448.039 260.267,451.498 256,451.498 L256,451.498 Z" id="Path" fill="#2B4D66"></path>
            <path d="M512,312.691 L486.21,292.087 L19.035,292.087 L0,312.691 L0,358.031 C0,377.809 16.033,393.843 35.812,393.843 L476.188,393.843 C495.966,393.843 512,377.81 512,358.031 L512,312.691 Z" id="Path" fill="#F6F7F8"></path>
            <path d="M486.21,292.088 L486.21,358.032 C486.21,377.81 470.176,393.844 450.398,393.844 L476.188,393.844 C495.966,393.844 512,377.811 512,358.032 L512,312.692 L486.21,292.088 Z" id="Path" fill="#B4C6D5"></path>
            <path d="M274.176,360.994 L237.825,360.994 C233.558,360.994 230.099,357.535 230.099,353.268 C230.099,349 233.558,345.542 237.825,345.542 L274.176,345.542 C278.444,345.542 281.902,349.001 281.902,353.268 C281.902,357.535 278.443,360.994 274.176,360.994 Z" id="Path" fill="#91D493"></path>
            <path d="M512,312.691 L0,312.691 L0,35.812 C0,16.034 16.033,1.25055521e-12 35.812,1.25055521e-12 L476.188,1.25055521e-12 C495.966,1.25055521e-12 512,16.033 512,35.812 L512,312.691 Z" id="Path" fill="#365E7D"></path>
            <path d="M476.188,1.25055521e-12 L450.398,1.25055521e-12 C470.176,1.25055521e-12 486.21,16.033 486.21,35.812 L486.21,312.691 L512,312.691 L512,35.812 C512,16.033 495.966,1.25055521e-12 476.188,1.25055521e-12 Z" id="Path" fill="#2B4D66"></path>
            <path d="M30.906,276.56 L30.906,35.812 C30.906,33.102 33.103,30.906 35.812,30.906 L476.188,30.906 C478.898,30.906 481.094,33.103 481.094,35.812 L481.094,276.56 C481.094,279.446 478.754,281.786 475.868,281.786 L36.132,281.786 C33.245,281.786 30.906,279.446 30.906,276.56 Z" id="Path" fill="#FAFCFF"></path>
            <path d="M476.188,30.905 L454.922,30.905 C457.632,30.905 459.828,33.102 459.828,35.811 L459.828,276.559 C459.828,279.445 457.488,281.785 454.602,281.785 L475.868,281.785 C478.754,281.785 481.094,279.445 481.094,276.559 L481.094,35.812 C481.094,33.102 478.898,30.905 476.188,30.905 Z" id="Path" fill="#DFEAEF"></path>
        </g>
        <mask id="mask-3" fill="white">
            <use xlink:href="#path-2"></use>
        </mask>
        <g id="window">
            <use fill="black" fill-opacity="1" filter="url(#filter-4)" xlink:href="#path-2"></use>
            <use fill="#F6F7F8" fill-rule="evenodd" xlink:href="#path-2"></use>
        </g>
        <g id="survey" mask="url(#mask-3)" fill="#383843" fill-rule="nonzero">
            <g transform="translate(366.000000, 381.000000)" id="Path">
                <path d="M87.1083765,20.3045647 L10.1720235,20.3045647 C4.78352941,20.3045647 0.415694118,15.9367294 0.415694118,10.5482353 C0.415694118,5.15974118 4.78352941,0.791905882 10.1720235,0.791905882 L87.1083765,0.791905882 C92.4968706,0.791905882 96.8647059,5.15974118 96.8647059,10.5482353 C96.8647059,15.9361882 92.4968706,20.3045647 87.1083765,20.3045647 Z"></path>
            </g>
        </g>
        <g id="header-bar" mask="url(#mask-3)">
            <g transform="translate(306.000000, 352.000000)">
                <path d="M3,0 L217,0 C218.656854,-3.04359188e-16 220,1.34314575 220,3 L220,16 L220,16 L0,16 L0,3 C-2.02906125e-16,1.34314575 1.34314575,3.04359188e-16 3,0 Z" id="Rectangle" fill="#7B8E9C"></path>
                <circle id="Oval" fill="#DF8768" cx="10" cy="8" r="4"></circle>
                <circle id="Oval" fill="#FFF07C" cx="22" cy="8" r="4"></circle>
                <circle id="Oval" fill="#88D18A" cx="34" cy="8" r="4"></circle>
            </g>
        </g>
    </g>
</svg>