<?xml version="1.0" encoding="UTF-8"?>
<svg width="1600px" height="900px" viewBox="0 0 1600 900" version="1.1" xmlns="http://www.w3.org/2000/svg" xmlns:xlink="http://www.w3.org/1999/xlink">
    <title>slide-7-food</title>
    <g id="slide-7-food" stroke="none" stroke-width="1" fill="none" fill-rule="evenodd">
        <g id="Group" transform="translate(883.000000, 441.000000)" fill="#4C82A9" stroke="#1E1E24" stroke-width="3">
            <g id="idea-share">
                <rect id="Rectangle" x="1.5" y="1.5" width="57" height="57" rx="12"></rect>
            </g>
        </g>
        <g id="Group" transform="translate(1003.000000, 441.000000)" fill="#4C82A9" stroke="#1E1E24" stroke-width="3">
            <g id="idea-share">
                <rect id="Rectangle" x="1.5" y="1.5" width="57" height="57" rx="12"></rect>
            </g>
        </g>
        <g id="Group" transform="translate(1003.000000, 561.000000)" fill="#DF8768" stroke="#1E1E24" stroke-width="3">
            <g id="idea-draft">
                <rect id="Rectangle" x="1.5" y="1.5" width="57" height="57" rx="12"></rect>
            </g>
        </g>
        <g id="Group" transform="translate(1124.000000, 561.000000)" fill="#DF8768" stroke="#1E1E24" stroke-width="3">
            <g id="idea-draft">
                <rect id="Rectangle" x="1.5" y="1.5" width="57" height="57" rx="12"></rect>
            </g>
        </g>
        <g id="Group" transform="translate(1064.000000, 591.000000)" stroke="#1E1E24" stroke-linecap="square" stroke-width="3">
            <g id="horizontal-track">
                <line x1="0" y1="0.5" x2="60" y2="0.5" id="Line"></line>
            </g>
        </g>
        <g id="Group" transform="translate(1244.000000, 561.000000)" fill="#DF8768" stroke="#1E1E24" stroke-width="3">
            <g id="idea-draft">
                <rect id="Rectangle" x="1.5" y="1.5" width="57" height="57" rx="12"></rect>
            </g>
        </g>
        <g id="Group" transform="translate(1184.000000, 591.000000)" stroke="#1E1E24" stroke-linecap="square" stroke-width="3">
            <g id="horizontal-track">
                <line x1="0" y1="0.5" x2="60" y2="0.5" id="Line"></line>
            </g>
        </g>
        <g id="Group" transform="translate(1365.000000, 561.000000)" fill="#DF8768" stroke="#1E1E24" stroke-width="3">
            <g id="idea-draft">
                <rect id="Rectangle" x="1.5" y="1.5" width="57" height="57" rx="12"></rect>
            </g>
        </g>
        <g id="Group" transform="translate(1305.000000, 591.000000)" stroke="#1E1E24" stroke-linecap="square" stroke-width="3">
            <g id="horizontal-track">
                <line x1="0" y1="0.5" x2="60" y2="0.5" id="Line"></line>
            </g>
        </g>
        <g id="Group" transform="translate(943.000000, 471.000000)" stroke="#1E1E24" stroke-linecap="square" stroke-width="3">
            <g id="horizontal-track">
                <line x1="0" y1="0.5" x2="60" y2="0.5" id="Line"></line>
            </g>
        </g>
        <g id="time-reference-frame" transform="translate(883.000000, 641.000000)" fill="#383843">
            <path id="Line-2" d="M102,4 L116,11 L102,18 L102,12 L44.6969697,12 L44.6969697,10 L102,10 L102,4 Z" fill-rule="nonzero"></path>
            <text id="TIME" font-family="Nunito-Regular, Nunito" font-size="16" font-weight="normal" letter-spacing="0.45714286">
                <tspan x="0" y="16.255814">TIME</tspan>
            </text>
        </g>
        <g id="Group" transform="translate(1033.000000, 501.000000)" stroke="#1E1E24" stroke-linecap="square" stroke-width="3">
            <g id="vertical-track">
                <line x1="0.5" y1="0" x2="0.5" y2="60" id="Line"></line>
            </g>
        </g>
        <g id="Group" transform="translate(1481.000000, 442.000000)" fill="#4C82A9" stroke="#1E1E24" stroke-width="3">
            <g id="idea-share">
                <rect id="Rectangle" x="1.5" y="1.5" width="57" height="57" rx="12"></rect>
            </g>
        </g>
        <g id="Group" transform="translate(1420.000000, 499.000000)" stroke="#1E1E24" stroke-linecap="square" stroke-width="3">
            <g id="diagonal-track">
                <line x1="33.5" y1="-13.0977444" x2="33.5" y2="80.0977444" id="Line" transform="translate(33.500000, 33.500000) rotate(-315.000000) translate(-33.500000, -33.500000) "></line>
            </g>
        </g>
        <g id="Group" transform="translate(1064.000000, 471.000000)" stroke="#1E1E24" stroke-linecap="square" stroke-width="3">
            <g id="horizontal-track" transform="translate(208.500000, 0.500000) scale(1, -1) translate(-208.500000, -0.500000) ">
                <line x1="0" y1="0.5" x2="417" y2="0.5" id="Line"></line>
            </g>
        </g>
        <rect id="Rectangle" stroke="#4C82A9" stroke-width="2" fill="#FAFCFF" x="116" y="252" width="600" height="600" rx="6"></rect>
        <g id="restaurant" transform="translate(160.000000, 387.000000)" fill-rule="nonzero">
            <path d="M355.671,212.339 C336.832,212.339 321.506,197.013 321.506,178.174 C321.506,159.335 336.832,144.009 355.671,144.009 C374.51,144.009 389.837,159.335 389.837,178.174 C389.837,197.013 374.51,212.339 355.671,212.339 Z M355.671,159.272 C345.249,159.272 336.77,167.751 336.77,178.173 C336.77,188.595 345.249,197.074 355.671,197.074 C366.094,197.074 374.573,188.595 374.573,178.173 C374.573,167.751 366.095,159.272 355.671,159.272 Z" id="Shape" fill="#FFC250"></path>
            <path d="M508,329.969 L4.04,329.969 C1.831,329.969 0.04,328.178 0.04,325.969 L0.04,285.03 C0.04,282.821 1.831,281.03 4.04,281.03 L508,281.03 C510.209,281.03 512,282.821 512,285.03 L512,325.968 C512,328.178 510.209,329.969 508,329.969 L508,329.969 Z" id="Path" fill="#707DD3"></path>
            <path d="M507.93,281.03 L486.304,281.03 L486.304,300.202 C486.304,302.45 484.482,304.272 482.234,304.272 L0.04,304.272 L0.04,325.898 C0.04,328.146 1.862,329.968 4.11,329.968 L507.93,329.968 C510.178,329.968 512,328.146 512,325.898 L512,285.1 C512,282.853 510.178,281.03 507.93,281.03 Z" id="Path" fill="#5766CB"></path>
            <path d="M335.145,189.686 C316.306,189.686 300.98,174.359 300.98,155.52 C300.98,136.681 316.306,121.355 335.145,121.355 C353.984,121.355 369.31,136.681 369.31,155.52 C369.31,174.359 353.984,189.686 335.145,189.686 Z M335.145,136.619 C324.723,136.619 316.244,145.098 316.244,155.52 C316.244,165.943 324.723,174.422 335.145,174.422 C345.567,174.422 354.046,165.943 354.046,155.52 C354.047,145.098 345.567,136.619 335.145,136.619 Z" id="Shape" fill="#FFD064"></path>
            <path d="M422.335,222.397 C403.496,222.397 388.17,207.071 388.17,188.232 C388.17,169.393 403.496,154.067 422.335,154.067 C441.174,154.067 456.5,169.393 456.5,188.232 C456.5,207.071 441.173,222.397 422.335,222.397 Z M422.335,169.33 C411.913,169.33 403.434,177.809 403.434,188.231 C403.434,198.653 411.913,207.132 422.335,207.132 C432.757,207.132 441.236,198.653 441.236,188.231 C441.236,177.809 432.757,169.33 422.335,169.33 Z" id="Shape" fill="#FFD064"></path>
            <path d="M316.825,165.076 C311.334,164.502 306.155,165.685 301.772,168.126 C299.986,169.121 297.76,168.569 296.546,166.925 C292.444,161.366 286.312,157.4 279.243,156.115 C277.141,155.733 275.667,153.764 275.959,151.648 C276.325,148.996 276.315,146.224 275.859,143.382 C273.89,131.111 263.697,121.528 251.327,120.317 C234.785,118.698 220.854,131.653 220.854,147.862 C220.854,151.069 221.401,154.148 222.405,157.012 C223.123,159.062 222.057,161.329 220.022,162.089 C209.44,166.042 201.926,176.285 202.025994,188.27 C202.157,203.571 215.049,215.712 230.351,215.712 L314.097,215.712 C328.664,215.712 340.365,203.445 339.434,188.677 C338.664,176.45 329.009,166.349 316.825,165.076 Z" id="Path" fill="#B3E59F"></path>
            <path d="M339.435,188.677 C338.664,176.451 329.01,166.349 316.825,165.076 C311.334,164.502 306.155,165.685 301.772,168.126 C299.986,169.121 297.76,168.569 296.546,166.924 C292.444,161.365 286.312,157.399 279.243,156.114 C277.141,155.732 275.667,153.763 275.959,151.647 C276.325,148.995 276.315,146.223 275.859,143.381 C273.89,131.109 263.697,121.527 251.327,120.316 C242.635,119.465 234.667,122.643 229.059,128.197 C233.132,132.221 235.991,137.484 236.937,143.38 C237.393,146.222 237.403,148.994 237.037,151.646 C236.745,153.763 238.218,155.731 240.321,156.113 C247.389,157.398 253.522,161.364 257.624,166.923 C258.838,168.568 261.064,169.119 262.85,168.125 C267.233,165.684 272.412,164.501 277.903,165.075 C290.087,166.348 299.742,176.449 300.513,188.676 C301.444,203.443 289.743,215.711 275.176,215.711 L314.098,215.711 C328.664,215.711 340.366,203.444 339.435,188.677 L339.435,188.677 Z" id="Path" fill="#95D6A4"></path>
            <polygon id="Path" fill="#BED8FB" points="76.823 175.155 92.086 175.155 92.086 281.03 76.823 281.03"></polygon>
            <g id="Group" transform="translate(0.000000, 258.000000)">
                <path d="M161.909,31.463 L7,31.463 C3.134,31.463 0,28.329 0,24.463 L0,7.936 C0,4.07 3.134,0.936 7,0.936 L161.909,0.936 C165.775,0.936 168.909,4.07 168.909,7.936 L168.909,24.463 C168.909,28.329 165.775,31.463 161.909,31.463 Z" id="Path" fill="#E4F6FF"></path>
                <path d="M161.909,0.936 L149.942,0.936 L149.942,5.496 C149.942,9.362 146.808,12.496 142.942,12.496 L-2.84217094e-14,12.496 L-2.84217094e-14,24.463 C-2.84217094e-14,28.329 3.134,31.463 7,31.463 L161.909,31.463 C165.775,31.463 168.909,28.329 168.909,24.463 L168.909,7.936 C168.909,4.07 165.775,0.936 161.909,0.936 L161.909,0.936 Z" id="Path" fill="#BED8FB"></path>
            </g>
            <g id="Group">
                <path d="M133.495,140.889 L92.086,179.508 L76.823,179.508 L35.414,140.888 C12.851,119.846 0.04,90.379 0.04,59.527 L0.04,7.177 C0.04,3.23 3.24,0.031 7.186,0.031 L161.722,0.031 C165.669,0.031 168.868,3.231 168.868,7.177 L168.868,59.527 C168.868,90.379 156.057,119.846 133.495,140.889 L133.495,140.889 Z" id="Path" fill="#E4F6FF"></path>
                <path d="M119.876,0.031 L119.876,36.73 C119.876,67.582 107.065,97.049 84.502,118.091 L47.736,152.381 L82.372,184.684 C83.545,185.778 85.364,185.778 86.536,184.684 L133.495,140.889 C156.057,119.847 168.869,90.38 168.869,59.528 L168.869,7.178 C168.869,3.231 165.669,0.031 161.723,0.031 L119.876,0.031 L119.876,0.031 Z" id="Path" fill="#BED8FB"></path>
                <path d="M34.734,82.104 C32.374,82.104 30.658,84.352 31.283,86.628 C34.858,99.644 41.981,111.556 52.038,120.935 L75.056,142.402 C80.349,147.339 88.56,147.339 93.853,142.402 L116.871,120.935 C126.928,111.556 134.051,99.644 137.626,86.628 C138.251,84.352 136.535,82.104 134.175,82.104 L34.734,82.104 Z" id="Path" fill="#E28086"></path>
                <path d="M110.194,82.104 C104.184,95.558 95.507,107.829 84.503,118.091 L66.746,134.652 L75.056,142.402 C80.349,147.339 88.56,147.339 93.853,142.402 L116.871,120.935 C126.928,111.556 134.051,99.644 137.626,86.628 C138.251,84.352 136.535,82.104 134.175,82.104 L110.194,82.104 Z" id="Path" fill="#DD636E"></path>
            </g>
            <circle id="Oval" fill="#E28086" cx="456.167" cy="193.55" r="16.596"></circle>
            <path d="M460.964,177.664 C461.422,179.184 461.675,180.792 461.675,182.462 C461.675,191.628 454.245,199.058 445.079,199.058 C443.41,199.058 441.801,198.806 440.281,198.347 C442.34,205.173 448.67,210.146 456.167,210.146 C465.333,210.146 472.763,202.716 472.763,193.55 C472.763,186.053 467.79,179.723 460.964,177.664 L460.964,177.664 Z" id="Path" fill="#DD636E"></path>
            <circle id="Oval" fill="#E28086" cx="396.463" cy="161.17" r="16.596"></circle>
            <path d="M401.26,145.285 C401.718,146.805 401.971,148.413 401.971,150.083 C401.971,159.249 394.541,166.679 385.375,166.679 C383.706,166.679 382.097,166.427 380.577,165.968 C382.636,172.794 388.966,177.767 396.463,177.767 C405.629,177.767 413.059,170.336 413.059,161.171 C413.059,153.673 408.086,147.344 401.26,145.285 L401.26,145.285 Z" id="Path" fill="#DD636E"></path>
            <path d="M506.912,202.577 L149.933,202.577 C147.123,202.577 144.845,204.855 144.845,207.665 L144.845,228.617 C144.845,231.427 147.123,233.705 149.933,233.705 L187.629,233.705 C208.68,233.705 225.744,250.77 225.744,271.821 C225.744,281.565 233.643,289.464 243.387,289.464 L412.44,289.464 C422.184,289.464 430.083,281.565 430.083,271.821 C430.083,250.77 447.148,233.705 468.198,233.705 L506.911,233.705 C509.721,233.705 511.999,231.427 511.999,228.617 L511.999,207.665 C511.999,204.855 509.722,202.577 506.912,202.577 Z" id="Path" fill="#E4F6FF"></path>
            <path d="M506.912,202.577 L448.771,202.577 C451.581,202.577 453.859,204.855 453.859,207.665 L453.859,228.617 C453.859,231.427 451.581,233.705 448.771,233.705 L421.251,233.705 C400.2,233.705 383.136,250.77 383.136,271.821 C383.136,281.565 375.237,289.464 365.493,289.464 L412.441,289.464 C422.185,289.464 430.084,281.565 430.084,271.821 C430.084,250.77 447.149,233.705 468.199,233.705 L506.912,233.705 C509.722,233.705 512,231.427 512,228.617 L512,207.665 C512,204.855 509.722,202.577 506.912,202.577 Z" id="Path" fill="#BED8FB"></path>
            <path d="M436.083,251.304 L219.744,251.304 C222.641,255.83 224.608,261.006 225.375,266.567 L430.452,266.567 C431.22,261.006 433.186,255.83 436.083,251.304 L436.083,251.304 Z" id="Path" fill="#707DD3"></path>
            <path d="M383.504,266.568 L430.452,266.568 C431.219,261.006 433.186,255.83 436.083,251.305 L389.135,251.305 C386.238,255.83 384.271,261.006 383.504,266.568 Z" id="Path" fill="#5766CB"></path>
        </g>
        <line x1="799.5" y1="352" x2="799.5" y2="752" id="Line" stroke="#A7A8AA" stroke-linecap="square"></line>
    </g>
</svg>