<?xml version="1.0" encoding="UTF-8"?>
<svg width="1974px" height="286px" viewBox="0 0 1974 286" version="1.1" xmlns="http://www.w3.org/2000/svg" xmlns:xlink="http://www.w3.org/1999/xlink">
    <title>Group</title>
    <g id="Page-1" stroke="none" stroke-width="1" fill="none" fill-rule="evenodd">
        <g id="xaringan-Title-Slide-Background" transform="translate(0.000000, -126.000000)" stroke="#1E1E24" stroke-width="3">
            <g id="Group" transform="translate(0.000000, 128.000000)">
                <line x1="0.464689266" y1="30.5" x2="1973.53531" y2="30.5" id="Line-3"></line>
                <line x1="470.5" y1="141.5" x2="470.5" y2="30.5" id="Line-4" stroke-linecap="square"></line>
                <line x1="670.5" y1="252.5" x2="670.5" y2="141.5" id="Line-4" stroke-linecap="square"></line>
                <line x1="870.5" y1="252.5" x2="870.5" y2="141.5" id="Line-4" stroke-linecap="square"></line>
                <line x1="870.5" y1="141.5" x2="870.5" y2="30.5" id="Line-4" stroke-linecap="square"></line>
                <line x1="1170.5" y1="149.5" x2="1170.5" y2="38.5" id="Line-4" stroke-linecap="square"></line>
                <line x1="1170.5" y1="252.5" x2="1170.5" y2="141.5" id="Line-4" stroke-linecap="square"></line>
                <line x1="1370.5" y1="140.5" x2="1370.5" y2="29.5" id="Line-4" stroke-linecap="square"></line>
                <line x1="1369.5" y1="252.5" x2="1369.5" y2="141.5" id="Line-4" stroke-linecap="square"></line>
                <line x1="437.464631" y1="141.5" x2="1973.53537" y2="141.5" id="Line-3"></line>
                <line x1="670.5" y1="252.5" x2="1370.5" y2="252.5" id="Line-3"></line>
                <line x1="1469.5" y1="252.5" x2="1469.5" y2="29.5" id="Line-4" stroke-linecap="square"></line>
                <line x1="1569.5" y1="251.5" x2="1569.5" y2="140.5" id="Line-4" stroke-linecap="square"></line>
                <line x1="1469.5" y1="252.5" x2="1973.53511" y2="252.5" id="Line-3"></line>
                <rect id="Rectangle" fill="#4C82A9" x="240" y="0" width="60" height="60" rx="12"></rect>
                <rect id="Rectangle" fill="#4C82A9" x="340" y="0" width="60" height="60" rx="12"></rect>
                <rect id="Rectangle" fill="#4C82A9" x="440" y="0" width="60" height="60" rx="12"></rect>
                <rect id="Rectangle" fill="#4C82A9" x="840" y="0" width="60" height="60" rx="12"></rect>
                <rect id="Rectangle" fill="#4C82A9" x="1140" y="0" width="60" height="60" rx="12"></rect>
                <rect id="Rectangle" fill="#4C82A9" x="1340" y="0" width="60" height="60" rx="12"></rect>
                <rect id="Rectangle" fill="#4C82A9" x="1440" y="0" width="60" height="60" rx="12"></rect>
                <rect id="Rectangle" fill="#DF8768" x="440" y="111" width="60" height="60" rx="12"></rect>
                <rect id="Rectangle" fill="#DF8768" x="540" y="111" width="60" height="60" rx="12"></rect>
                <rect id="Rectangle" fill="#DF8768" x="640" y="111" width="60" height="60" rx="12"></rect>
                <rect id="Rectangle" fill="#DF8768" x="840" y="111" width="60" height="60" rx="12"></rect>
                <rect id="Rectangle" fill="#DF8768" x="940" y="111" width="60" height="60" rx="12"></rect>
                <rect id="Rectangle" fill="#DF8768" x="1040" y="111" width="60" height="60" rx="12"></rect>
                <rect id="Rectangle" fill="#DF8768" x="1140" y="111" width="60" height="60" rx="12"></rect>
                <rect id="Rectangle" fill="#DF8768" x="1340" y="111" width="60" height="60" rx="12"></rect>
                <rect id="Rectangle" fill="#DF8768" x="1440" y="111" width="60" height="60" rx="12"></rect>
                <rect id="Rectangle" fill="#DF8768" x="1540" y="111" width="60" height="60" rx="12"></rect>
                <rect id="Rectangle" fill="#FFF07C" x="640" y="222" width="60" height="60" rx="12"></rect>
                <rect id="Rectangle" fill="#FFF07C" x="740" y="222" width="60" height="60" rx="12"></rect>
                <rect id="Rectangle" fill="#FFF07C" x="840" y="222" width="60" height="60" rx="12"></rect>
                <rect id="Rectangle" fill="#FFF07C" x="1140" y="222" width="60" height="60" rx="12"></rect>
                <rect id="Rectangle" fill="#FFF07C" x="1240" y="222" width="60" height="60" rx="12"></rect>
                <rect id="Rectangle" fill="#FFF07C" x="1340" y="222" width="60" height="60" rx="12"></rect>
                <rect id="Rectangle" fill="#FFF07C" x="1340" y="221" width="60" height="60" rx="12"></rect>
                <rect id="Rectangle" fill="#88D18A" x="1440" y="222" width="60" height="60" rx="12"></rect>
                <rect id="Rectangle" fill="#88D18A" x="1540" y="222" width="60" height="60" rx="12"></rect>
            </g>
        </g>
    </g>
</svg>