<?xml version="1.0" encoding="UTF-8"?>
<svg width="1527px" height="286px" viewBox="0 0 1527 286" version="1.1" xmlns="http://www.w3.org/2000/svg" xmlns:xlink="http://www.w3.org/1999/xlink">
    <title>Group</title>
    <g id="Page-1" stroke="none" stroke-width="1" fill="none" fill-rule="evenodd">
        <g id="xaringan-Title-Slide-Background" transform="translate(0.000000, -107.000000)" stroke="#1E1E24" stroke-width="3">
            <g id="Group" transform="translate(0.000000, 109.000000)">
                <line x1="0.5" y1="30.5" x2="1526.5" y2="30.5" id="Line-3"></line>
                <line x1="326.5" y1="141.5" x2="326.5" y2="30.5" id="Line-4" stroke-linecap="square"></line>
                <line x1="526.5" y1="252.5" x2="526.5" y2="141.5" id="Line-4" stroke-linecap="square"></line>
                <line x1="726.5" y1="252.5" x2="726.5" y2="141.5" id="Line-4" stroke-linecap="square"></line>
                <line x1="726.5" y1="141.5" x2="726.5" y2="30.5" id="Line-4" stroke-linecap="square"></line>
                <line x1="1026.5" y1="149.5" x2="1026.5" y2="38.5" id="Line-4" stroke-linecap="square"></line>
                <line x1="1026.5" y1="252.5" x2="1026.5" y2="141.5" id="Line-4" stroke-linecap="square"></line>
                <line x1="1226.5" y1="140.5" x2="1226.5" y2="29.5" id="Line-4" stroke-linecap="square"></line>
                <line x1="1225.5" y1="252.5" x2="1225.5" y2="141.5" id="Line-4" stroke-linecap="square"></line>
                <line x1="326.5" y1="141.5" x2="1526.5" y2="141.5" id="Line-3"></line>
                <line x1="526.5" y1="252.5" x2="726.5" y2="252.5" id="Line-3"></line>
                <line x1="1026.5" y1="252.5" x2="1226.5" y2="252.5" id="Line-3"></line>
                <line x1="1325.5" y1="140.5" x2="1325.5" y2="29.5" id="Line-4" stroke-linecap="square"></line>
                <rect id="Rectangle" fill="#4C82A9" x="96" y="0" width="60" height="60" rx="12"></rect>
                <rect id="Rectangle" fill="#4C82A9" x="196" y="0" width="60" height="60" rx="12"></rect>
                <rect id="Rectangle" fill="#4C82A9" x="296" y="0" width="60" height="60" rx="12"></rect>
                <rect id="Rectangle" fill="#4C82A9" x="696" y="0" width="60" height="60" rx="12"></rect>
                <rect id="Rectangle" fill="#4C82A9" x="996" y="0" width="60" height="60" rx="12"></rect>
                <rect id="Rectangle" fill="#4C82A9" x="1196" y="0" width="60" height="60" rx="12"></rect>
                <rect id="Rectangle" fill="#4C82A9" x="1296" y="0" width="60" height="60" rx="12"></rect>
                <rect id="Rectangle" fill="#DF8768" x="296" y="111" width="60" height="60" rx="12"></rect>
                <rect id="Rectangle" fill="#DF8768" x="396" y="111" width="60" height="60" rx="12"></rect>
                <rect id="Rectangle" fill="#DF8768" x="496" y="111" width="60" height="60" rx="12"></rect>
                <rect id="Rectangle" fill="#DF8768" x="696" y="111" width="60" height="60" rx="12"></rect>
                <rect id="Rectangle" fill="#DF8768" x="796" y="111" width="60" height="60" rx="12"></rect>
                <rect id="Rectangle" fill="#DF8768" x="896" y="111" width="60" height="60" rx="12"></rect>
                <rect id="Rectangle" fill="#DF8768" x="996" y="111" width="60" height="60" rx="12"></rect>
                <rect id="Rectangle" fill="#DF8768" x="1196" y="111" width="60" height="60" rx="12"></rect>
                <rect id="Rectangle" fill="#DF8768" x="1296" y="111" width="60" height="60" rx="12"></rect>
                <rect id="Rectangle" fill="#DF8768" x="1396" y="111" width="60" height="60" rx="12"></rect>
                <rect id="Rectangle" fill="#FFF07C" x="496" y="222" width="60" height="60" rx="12"></rect>
                <rect id="Rectangle" fill="#FFF07C" x="596" y="222" width="60" height="60" rx="12"></rect>
                <rect id="Rectangle" fill="#FFF07C" x="696" y="222" width="60" height="60" rx="12"></rect>
                <rect id="Rectangle" fill="#FFF07C" x="996" y="222" width="60" height="60" rx="12"></rect>
                <rect id="Rectangle" fill="#FFF07C" x="1096" y="222" width="60" height="60" rx="12"></rect>
                <rect id="Rectangle" fill="#FFF07C" x="1196" y="222" width="60" height="60" rx="12"></rect>
                <rect id="Rectangle" fill="#FFF07C" x="1196" y="221" width="60" height="60" rx="12"></rect>
            </g>
        </g>
    </g>
</svg>