<svg id="Capa_1" enable-background="new 0 0 512 512" height="512" viewBox="0 0 512 512" width="512" xmlns="http://www.w3.org/2000/svg"><g><path d="m459.25 376.5h52.75v-241h-52.75c-8.284 0-15-6.716-15-15v-52.75h-37.75v52.326c0 8.077-6.207 15.027-14.275 15.407-8.614.406-15.725-6.458-15.725-14.983v-52.75h-52.326c-8.077 0-15.027-6.207-15.407-14.275-.406-8.614 6.458-15.725 14.983-15.725h135.5c8.284 0 15 6.716 15 15v52.75h37.75v-90.5c0-8.284-6.716-15-15-15h-482c-8.284 0-15 6.716-15 15v22.75h52.75c8.284 0 15 6.716 15 15v120.5h52.75c8.284 0 15 6.716 15 15v67.326c0 8.077-6.207 15.027-14.275 15.407-8.614.406-15.725-6.458-15.725-14.983v-52.75h-52.75c-8.284 0-15-6.716-15-15v-120.5h-37.75v173.25h52.75c8.284 0 15 6.716 15 15v52.75h188.25c8.284 0 15 6.716 15 15v67.326c0 8.077-6.207 15.027-14.275 15.407-8.614.406-15.725-6.458-15.725-14.983v-52.75h-188.25c-8.284 0-15-6.716-15-15v-52.75h-37.75v226c0 8.284 6.716 15 15 15h22.75v-120.5c0-8.284 6.716-15 15-15h135.5c8.284 0 15 6.716 15 15v52.75h173.25v-120.5c0-8.284 6.716-15 15-15h52.75v-37.75h-105.5v120.076c0 8.077-6.207 15.027-14.275 15.407-8.614.406-15.725-6.458-15.725-14.983v-135.5c0-8.284 6.716-15 15-15h120.5v-37.75h-120.5c-8.284 0-15-6.716-15-15v-52.75h-52.75c-8.284 0-15-6.716-15-15v-52.75h-105.5v37.75h52.75c8.284 0 15 6.716 15 15v52.75h52.75c8.284 0 15 6.716 15 15v67.75c0 8.284-6.716 15-15 15h-67.326c-8.077 0-15.027-6.207-15.407-14.275-.406-8.614 6.458-15.725 14.983-15.725h52.75v-37.75h-52.75c-8.284 0-15-6.716-15-15v-52.75h-52.75c-8.284 0-15-6.716-15-15v-67.75c0-8.284 6.716-15 15-15h135.5c8.284 0 15 6.716 15 15v52.75h52.75c8.284 0 15 6.716 15 15v52.75h120.5c8.284 0 15 6.716 15 15v135.5c0 8.284-6.716 15-15 15h-52.75v120.5c0 8.284-6.716 15-15 15h-203.25c-8.284 0-15-6.716-15-15v-52.75h-105.5v105.5h37.75v-52.326c0-8.077 6.207-15.027 14.275-15.407 8.614-.406 15.725 6.458 15.725 14.983v52.75h361.5c8.284 0 15-6.716 15-15v-90.5h-37.75v52.326c0 8.077-6.207 15.027-14.275 15.407-8.614.406-15.725-6.458-15.725-14.983v-67.75c0-8.284 6.716-15 15-15z"/></g></svg>