<svg id="Capa_1" enable-background="new 0 0 512.079 512.079" height="512" viewBox="0 0 512.079 512.079" width="512" xmlns="http://www.w3.org/2000/svg"><g><g><g><g><path d="m185.906 141.037c-12.045-2.376-20.98 4.149-28.16 9.388-2.564 1.87-4.986 3.638-7.328 4.889-6.968 3.719-15.373 4.658-24.272 5.65-4.455.497-9.062 1.011-13.638 1.9-16.731 3.25-33.931 14.452-34.64 32.151-.769 19.195 18.59 31.407 26.857 36.623 3.972 2.505 8.08 5.096 12.848 6.979 6.656 2.631 13.656 3.421 19.966 3.421 4.35 0 8.372-.376 11.726-.782 20.524-2.488 35.542-9.547 44.635-20.98 10.936-13.75 11.821-31.734 11.535-44.066-.236-10.215-.729-31.472-19.529-35.173zm-3.741 69.904c-6.554 8.24-18.231 13.432-34.704 15.429-10.629 1.288-18.147.765-24.377-1.698-3.465-1.369-6.814-3.48-10.359-5.716-9.449-5.962-20.248-14.002-19.874-23.341.362-9.037 11.601-15.911 22.516-18.032 3.981-.773 8.09-1.232 12.441-1.717 9.913-1.106 20.163-2.249 29.67-7.325 3.271-1.746 6.237-3.911 9.106-6.004 5.793-4.227 9.851-7.001 14.289-7.001.7 0 1.409.069 2.135.212 5.092 1.003 7.107 6.642 7.435 20.809.37 15.893-2.261 26.819-8.278 34.384z"/><path d="m494.08 74.352c0-40.997-33.354-74.352-74.353-74.352-31.332 0-58.18 19.491-69.107 46.976-29.333-13.288-61.413-20.307-94.58-20.307-61.267 0-118.867 23.859-162.19 67.182-43.322 43.322-67.181 100.923-67.181 162.189 0 41.362 10.878 81.052 31.275 115.806-23.718 12.438-39.946 37.293-39.946 65.881 0 40.997 33.355 74.352 74.353 74.352 31.331 0 58.179-19.49 69.107-46.973 29.334 13.288 61.415 20.305 94.582 20.305 47.867 0 93.73-14.597 132.631-42.213 3.377-2.396 4.171-7.077 1.774-10.453s-7.078-4.171-10.453-1.773c-8.174 5.803-16.68 10.984-25.46 15.54-.123-4.956-1.074-9.789-2.893-14.252-6.639-16.235-21.347-24.496-35.571-32.487-7.762-4.361-15.093-8.479-21.028-13.753-3.883-3.439-6.476-6.93-7.707-10.375-1.649-4.615-1.44-9.885-1.219-15.465.131-3.311.267-6.736.041-10.287-.626-9.653-3.495-20.23-8.295-30.584-8.833-19.082-22.663-32.636-38.944-38.167-15.349-5.212-32.372-3.303-49.227 5.522-6.205 3.245-22.687 11.865-22.365 27.599.341 16.642 18.481 23.978 28.219 27.917 10.765 4.366 17.441 8.857 21.648 14.559 6.326 8.57 3.28 14.791-5.744 27.972-1.979 2.891-4.026 5.881-5.831 8.979-11.362 19.533-18.122 42.441-19.336 65.141-7.041-2.418-13.949-5.195-20.694-8.338.722-4.151 1.119-8.412 1.119-12.766 0-40.999-33.355-74.353-74.353-74.353-7.037 0-13.84 1.004-20.296 2.839-19.807-32.942-30.391-70.742-30.391-110.174 0-57.262 22.299-111.097 62.79-151.587 40.49-40.491 94.325-62.79 151.587-62.79 11.38 0 22.621.895 33.652 2.625-2.064 6.994-5.271 13.928-9.48 20.377-.984 1.505-2.168 3.039-3.619 4.686l-.888.976c-2.787 3.062-2.564 7.804.499 10.591 3.061 2.785 7.803 2.563 10.591-.499l.928-1.02c.025-.028.051-.056.076-.085 1.951-2.209 3.575-4.319 4.969-6.452 5.271-8.076 9.255-16.838 11.716-25.696 1.728.399 3.445.827 5.157 1.267-.002-.014-.003-.028-.005-.042 12.696 3.254 25.017 7.687 36.856 13.203-.721 4.148-1.118 8.406-1.118 12.757 0 40.998 33.355 74.353 74.352 74.353 7.026 0 13.819-1.001 20.266-2.83 9.466 15.737 16.844 32.572 21.946 50.178-.01-.004-.02-.008-.03-.012.338 1.163.667 2.33.987 3.502-.699.302-1.408.568-2.124.8-6.245 2.02-15.868 1.333-26.056.605-19.915-1.422-44.699-3.189-55.806 17.298-7.572 14.001-4.984 29.121-2.906 41.259l.099.582c2.355 13.814 2.154 22-.599 24.328-2.951 2.498-12.515 2.361-27.228-3.579-11.004-4.442-22.013-11.035-32.723-19.597-14.523-11.609-29.366-26.67-45.377-46.044-16.13-19.51-20.949-34.108-15.162-45.952.407-.835.885-1.71 1.391-2.638 1.729-3.165 3.688-6.752 4.238-11.244 1.021-8.296-2.164-14.241-4.723-19.018-1.229-2.293-2.389-4.459-3.008-6.696-2.487-9.008-.016-16.405 8.53-25.528 2.831-3.022 2.675-7.767-.347-10.597-3.022-2.831-7.767-2.675-10.597.347-7.633 8.149-17.185 21.137-12.039 39.773 1.066 3.85 2.754 7.002 4.244 9.783 2.299 4.291 3.479 6.689 3.058 10.11-.202 1.649-1.325 3.706-2.514 5.883-.567 1.038-1.153 2.112-1.708 3.252-12.721 26.033 9.711 53.165 17.081 62.08 16.674 20.176 32.235 35.942 47.572 48.203 11.847 9.471 24.119 16.802 36.474 21.789 8.02 3.236 17.732 6.181 26.523 6.181 6.056-.001 11.676-1.398 16.003-5.059 10.683-9.037 7.439-28.071 5.696-38.296l-.099-.583c-1.865-10.895-3.794-22.161 1.31-31.599 6.043-11.147 20.375-10.992 41.553-9.48 11.683.834 22.718 1.621 31.737-1.295.33-.107.655-.231.983-.347 2.675 13.615 4.048 27.591 4.048 41.777 0 58.249-22.962 112.739-64.657 153.432-2.963 2.892-3.021 7.639-.129 10.602 2.892 2.962 7.638 3.021 10.602.129 44.611-43.538 69.179-101.838 69.179-164.162 0-41.363-10.895-81.044-31.294-115.798 23.723-12.435 39.958-37.295 39.958-65.89zm-275.505 326.881c1.527-2.623 3.332-5.26 5.244-8.052 7.901-11.541 18.721-27.346 5.436-45.346-7.616-10.323-19.005-15.871-28.083-19.555-9.056-3.663-18.729-8.092-18.857-14.325-.089-4.337 4.596-8.919 14.326-14.007 13.32-6.976 25.921-8.526 37.452-4.61 12.535 4.258 22.964 14.724 30.161 30.271 4.032 8.694 6.43 17.427 6.937 25.241.176 2.771.061 5.667-.06 8.734-.255 6.446-.544 13.753 2.081 21.102 2.091 5.852 6.09 11.423 11.877 16.548 7.133 6.34 15.522 11.052 23.635 15.609 12.536 7.042 24.376 13.693 29.033 25.082 1.944 4.77 2.34 10.307 1.173 15.873-.673.282-1.351.546-2.025.822.006.011.011.022.016.034-25.457 10.383-52.798 15.76-80.881 15.76-17.411 0-34.497-2.082-50.992-6.096.006-.009.012-.019.018-.028-1.327-.323-2.657-.633-3.977-.982.516-21.264 6.847-43.786 17.486-62.075zm-103.121 91.17c-.03.012-.06.024-.09.037-1.057.438-2.127.851-3.205 1.234-6.199 2.201-12.863 3.411-19.807 3.411-6.838 0-13.692-1.192-20.12-3.511-1.011-.365-2.011-.757-3-1.177-.158-.067-.311-.144-.468-.212 2.11-2.667 4.669-4.972 7.589-6.814 3.011-1.89 5.52-4.54 7.27-7.687 1.723-3.123 2.633-6.66 2.633-10.227 0-6.641-3.14-12.95-8.402-16.878-6.213-4.633-9.777-11.729-9.777-19.471 0-6.806 2.74-13.113 7.717-17.757 4.97-4.639 11.464-6.939 18.297-6.464 11.796.818 21.446 10.308 22.447 22.073.718 8.432-2.874 16.489-9.602 21.549-2.604 1.955-4.757 4.53-6.247 7.482-1.463 2.94-2.237 6.214-2.237 9.465 0 7.324 3.697 14.02 9.886 17.909 2.928 1.844 5.491 4.15 7.603 6.818-.164.071-.322.15-.487.22zm-23.102-114.034c32.73 0 59.358 26.628 59.358 59.358 0 18.958-8.944 35.855-22.823 46.73-3.369-4.669-7.616-8.669-12.565-11.784-1.801-1.131-2.875-3.082-2.875-5.217 0-.958.224-1.896.648-2.747.444-.88 1.066-1.624 1.851-2.214 10.883-8.186 16.69-21.198 15.533-34.806-1.622-19.062-17.249-34.436-36.353-35.762-11.023-.755-21.522 2.955-29.563 10.461-7.931 7.404-12.48 17.871-12.48 28.719 0 12.339 5.91 24.111 15.806 31.49 1.486 1.109 2.374 2.926 2.374 4.859 0 1.042-.266 2.074-.756 2.964-.513.922-1.248 1.7-2.136 2.258-4.941 3.115-9.168 7.126-12.536 11.791-13.887-10.874-22.838-27.777-22.838-46.742-.004-32.73 26.624-59.358 59.355-59.358zm349.56-248.976c-6.859 2.775-14.343 4.317-22.185 4.317-7.952 0-15.538-1.583-22.475-4.432-.09-.037-1.056-.517-1.112-.469 2.11-2.668 4.669-4.973 7.59-6.815 3.009-1.89 5.518-4.539 7.267-7.684 1.723-3.124 2.634-6.661 2.634-10.229 0-6.643-3.141-12.953-8.402-16.878-6.213-4.633-9.777-11.729-9.777-19.471 0-6.806 2.74-13.113 7.716-17.757 4.971-4.639 11.473-6.938 18.297-6.465 11.796.818 21.446 10.308 22.447 22.073.717 8.433-2.873 16.489-9.602 21.55-2.605 1.956-4.758 4.531-6.246 7.481-1.464 2.94-2.238 6.214-2.238 9.466 0 7.323 3.697 14.019 9.887 17.91 2.929 1.843 5.491 4.149 7.603 6.817-.016-.02-1.322.553-1.404.586zm1.786-20.094c-1.801-1.132-2.876-3.082-2.876-5.217 0-.959.224-1.895.649-2.748.444-.879 1.065-1.623 1.85-2.213 10.884-8.186 16.691-21.198 15.533-34.807-1.622-19.062-17.249-34.436-36.354-35.762-11.021-.755-21.521 2.956-29.563 10.463-7.93 7.403-12.479 17.871-12.479 28.719 0 12.339 5.91 24.111 15.806 31.491 1.486 1.108 2.373 2.924 2.373 4.858 0 1.042-.266 2.074-.756 2.962-.513.923-1.249 1.703-2.136 2.26-4.942 3.114-9.158 7.134-12.519 11.805-13.898-10.874-22.856-27.783-22.856-46.757 0-32.73 26.628-59.357 59.358-59.357s59.358 26.627 59.358 59.357c0 18.969-8.955 35.876-22.848 46.75-3.367-4.672-7.591-8.69-12.54-11.804z"/></g></g></g></g></svg>