<svg id="Capa_1" enable-background="new 0 0 512.373 512.373" height="512" viewBox="0 0 512.373 512.373" width="512" xmlns="http://www.w3.org/2000/svg"><g><path d="m359.058 236.787h-180.691v-107.202c0-37.458 30.037-68.224 66.958-68.582 18.125-.149 35.291 6.783 48.229 19.596 12.94 12.816 20.067 29.873 20.067 48.029v38.305c0 12.952 10.537 23.488 23.488 23.488h14.023c12.951 0 23.488-10.537 23.488-23.488v-38.305c0-23.688-6.498-46.845-18.79-66.967-2.16-3.536-6.777-4.65-10.311-2.49-3.534 2.159-4.649 6.775-2.49 10.31 10.854 17.766 16.591 38.218 16.591 59.146v38.305c0 4.681-3.808 8.488-8.488 8.488h-14.023c-4.681 0-8.488-3.808-8.488-8.488v-38.305c0-22.19-8.705-43.032-24.513-58.687-15.609-15.458-36.214-23.94-58.106-23.94-.272 0-.549.001-.823.004-45.11.438-81.812 37.932-81.812 83.581v107.202h-30.438c-.189 0-.374.013-.562.014v-108.174c0-62.654 50.973-113.627 113.627-113.627 29.135 0 56.841 11.017 78.015 31.021 3.009 2.844 7.756 2.71 10.603-.301 2.844-3.011 2.709-7.758-.302-10.603-23.97-22.645-55.335-35.117-88.316-35.117-70.925 0-128.627 57.702-128.627 128.627v110.016c-29.196 7.027-50.961 33.346-50.961 64.667v80.35c0 4.142 3.357 7.5 7.5 7.5s7.5-3.358 7.5-7.5v-80.35c0-28.41 23.113-51.524 51.523-51.524h226.129c28.41 0 51.523 23.114 51.523 51.524v142.539c0 28.41-23.113 51.523-51.523 51.523h-226.129c-28.41 0-51.523-23.113-51.523-51.523v-30.226c0-4.142-3.357-7.5-7.5-7.5s-7.5 3.358-7.5 7.5v30.226c0 36.681 29.842 66.523 66.523 66.523h226.129c36.682 0 66.523-29.842 66.523-66.523v-142.538c.001-36.682-29.841-66.524-66.523-66.524z"/><path d="m386.083 334.114c4.143 0 7.5-3.358 7.5-7.5v-23.303c0-19.037-15.487-34.524-34.524-34.524h-37.938c-4.143 0-7.5 3.358-7.5 7.5s3.357 7.5 7.5 7.5h37.938c10.766 0 19.524 8.758 19.524 19.524v23.303c0 4.142 3.357 7.5 7.5 7.5z"/><path d="m105.905 334.114c4.143 0 7.5-3.358 7.5-7.5v-23.303c0-10.766 8.759-19.524 19.524-19.524h37.938c4.143 0 7.5-3.358 7.5-7.5s-3.357-7.5-7.5-7.5h-37.938c-19.037 0-34.524 15.487-34.524 34.524v23.303c0 4.142 3.357 7.5 7.5 7.5z"/><path d="m98.405 445.849c0 19.037 15.487 34.524 34.524 34.524h37.938c4.143 0 7.5-3.358 7.5-7.5s-3.357-7.5-7.5-7.5h-37.938c-10.766 0-19.524-8.758-19.524-19.524v-23.303c0-4.142-3.357-7.5-7.5-7.5s-7.5 3.358-7.5 7.5z"/><path d="m321.121 480.373h37.938c19.037 0 34.524-15.487 34.524-34.524v-23.303c0-4.142-3.357-7.5-7.5-7.5s-7.5 3.358-7.5 7.5v23.303c0 10.766-8.759 19.524-19.524 19.524h-37.938c-4.143 0-7.5 3.358-7.5 7.5s3.357 7.5 7.5 7.5z"/><path d="m243.653 324.371c6.105-.424 12.151.852 17.485 3.703 3.651 1.954 8.197.574 10.149-3.079 1.953-3.653.574-8.197-3.079-10.15-7.826-4.184-16.672-6.061-25.606-5.438-23.692 1.663-42.496 20.815-43.738 44.55-.816 15.596 6.098 30.563 18.495 40.037.594.454.876 1.226.719 1.965l-6.896 32.354c-.996 4.669.155 9.475 3.159 13.186 3.003 3.711 7.464 5.84 12.238 5.84h38.828c4.774 0 9.235-2.128 12.238-5.84 3.004-3.711 4.155-8.517 3.159-13.186l-6.894-32.346c-.16-.752.173-1.554.871-2.091 11.698-9.016 18.407-22.645 18.407-37.393 0-3.881-.484-7.771-1.44-11.562-1.013-4.018-5.087-6.452-9.106-5.439-4.016 1.013-6.451 5.089-5.438 9.106.654 2.593.985 5.25.985 7.895 0 10.059-4.579 19.358-12.562 25.511-5.314 4.095-7.762 10.647-6.386 17.1l6.894 32.347c.019.086.073.347-.149.622-.224.276-.49.276-.578.276h-38.828c-.088 0-.354 0-.578-.276-.223-.275-.168-.536-.149-.623l6.896-32.356c1.357-6.378-1.107-13.054-6.281-17.008-8.463-6.466-13.182-16.685-12.625-27.334.847-16.181 13.663-29.238 29.81-30.371z"/><path d="m415.379 157.798c1.919 0 3.839-.732 5.304-2.197l15.797-15.797c2.929-2.929 2.929-7.678 0-10.606-2.93-2.93-7.678-2.929-10.607 0l-15.797 15.797c-2.929 2.929-2.929 7.678 0 10.606 1.464 1.465 3.384 2.197 5.303 2.197z"/><path d="m420.682 208.185c-2.93-2.929-7.678-2.93-10.607 0-2.929 2.929-2.929 7.677 0 10.606l15.797 15.797c1.465 1.465 3.384 2.197 5.304 2.197 1.919 0 3.839-.732 5.304-2.197 2.929-2.929 2.929-7.677 0-10.606z"/><path d="m438.467 174.393h-20.384c-4.143 0-7.5 3.358-7.5 7.5s3.357 7.5 7.5 7.5h20.384c4.143 0 7.5-3.358 7.5-7.5s-3.358-7.5-7.5-7.5z"/></g></svg>